# xmcd CD database file
#
# Track frame offsets:
#	150
#	18080
#	54156
#	67131
#	78982
#	94812
#	107127
#	137202
#	151752
#	163977
#	173727
#	174702
#	197352
#	220055
#	223881
#	230032
#	244561
#	275087
#	319787
#	331937
#
# Disc length: 4483 seconds
#
# Revision: 0
# Processed by: cddbd v1.5.2PL0 Copyright (c) Steve Scherf et al.
# Submitted via: CDex 1.51
#
DISCID=1d118114
DTITLE=HOBO BLUES BAND - Tíltott Gyümölcs
DYEAR=1988
DGENRE=Blues
TTITLE0=Moszkva Tér Blues
TTITLE1=Othello Blues
TTITLE2=Gazember
TTITLE3=Feketebárány Blues
TTITLE4=Tobacco Road
TTITLE5=Kopaszkutya
TTITLE6=Belladonna
TTITLE7=Illatos Dal
TTITLE8=Bunkó Vagyok
TTITLE9=Farock
TTITLE10=Haláltánc
TTITLE11=Ballada A Senki Fiáról
TTITLE12=Elszállt Egy Hajó A Szélben
TTITLE13=Tiszta Szivvel
TTITLE14=Zöld Sárga
TTITLE15=Bevonuló Baka Blues
TTITLE16=Kelj Fel, Ne Hagyd!
TTITLE17=Vörös ház
TTITLE18=Bye Bye Johnny!
TTITLE19=Bohóc Blues
EXTD=YEAR: 1988
EXTT0=
EXTT1=
EXTT2=
EXTT3=
EXTT4=
EXTT5=
EXTT6=
EXTT7=
EXTT8=
EXTT9=
EXTT10=
EXTT11=
EXTT12=
EXTT13=
EXTT14=
EXTT15=
EXTT16=
EXTT17=
EXTT18=
EXTT19=
PLAYORDER=
